<?xml version="1.0" encoding="UTF-8" standalone="no"?>
<!DOCTYPE svg PUBLIC "-//W3C//DTD SVG 1.1//EN"
 "http://www.w3.org/Graphics/SVG/1.1/DTD/svg11.dtd">
<!-- Generated by graphviz version 2.40.1 (20161225.0304)
 -->
<!-- Title: G Pages: 1 -->
<svg width="215pt" height="98pt"
 viewBox="0.00 0.00 215.32 98.00" xmlns="http://www.w3.org/2000/svg" xmlns:xlink="http://www.w3.org/1999/xlink">
<g id="graph0" class="graph" transform="scale(1 1) rotate(0) translate(4 94)">
<title>G</title>
<polygon fill="#ffffff" stroke="transparent" points="-4,4 -4,-94 211.3234,-94 211.3234,4 -4,4"/>
<!-- Circle -->
<g id="node1" class="node">
<title>Circle</title>
<ellipse fill="none" stroke="#000000" cx="174.8262" cy="-18.0008" rx="32.4942" ry="18"/>
<text text-anchor="middle" x="174.8262" y="-14.3008" font-family="Times,serif" font-size="14.00" fill="#000000">Circle</text>
</g>
<!-- Base -->
<g id="node4" class="node">
<title>Base</title>
<ellipse fill="none" stroke="#000000" cx="106.1484" cy="-18" rx="27.8951" ry="18"/>
<text text-anchor="middle" x="106.1484" y="-14.3" font-family="Times,serif" font-size="14.00" fill="#000000">Base</text>
</g>
<!-- Circle&#45;&gt;Base -->
<g id="edge2" class="edge">
<title>Circle&#45;&gt;Base</title>
<path fill="none" stroke="#000000" d="M142.0964,-18.0004C141.9323,-18.0004 141.7682,-18.0004 141.604,-18.0004"/>
<polygon fill="#000000" stroke="#000000" points="144.2434,-14.5006 134.2433,-18.0003 144.2432,-21.5006 144.2434,-14.5006"/>
<text text-anchor="middle" x="124.3502" y="-21.8004" font-family="Times,serif" font-size="14.00" fill="#000000">Public</text>
</g>
<!-- Point -->
<g id="node2" class="node">
<title>Point</title>
<ellipse fill="none" stroke="#000000" cx="164.2474" cy="-72" rx="29.4969" ry="18"/>
<text text-anchor="middle" x="164.2474" y="-68.3" font-family="Times,serif" font-size="14.00" fill="#000000">Point</text>
</g>
<!-- Square -->
<g id="node3" class="node">
<title>Square</title>
<ellipse fill="none" stroke="#000000" cx="35.0969" cy="-18.0007" rx="35.194" ry="18"/>
<text text-anchor="middle" x="35.0969" y="-14.3007" font-family="Times,serif" font-size="14.00" fill="#000000">Square</text>
</g>
<!-- Square&#45;&gt;Base -->
<g id="edge1" class="edge">
<title>Square&#45;&gt;Base</title>
<path fill="none" stroke="#000000" d="M70.2063,-18.0004C70.3724,-18.0004 70.5385,-18.0004 70.7046,-18.0004"/>
<polygon fill="#000000" stroke="#000000" points="68.1276,-21.5005 78.1275,-18.0003 68.1274,-14.5005 68.1276,-21.5005"/>
<text text-anchor="middle" x="87.9554" y="-21.8004" font-family="Times,serif" font-size="14.00" fill="#000000">Public</text>
</g>
</g>
</svg>
