<?xml version="1.0" encoding="UTF-8" standalone="no"?>
<!DOCTYPE svg PUBLIC "-//W3C//DTD SVG 1.1//EN"
 "http://www.w3.org/Graphics/SVG/1.1/DTD/svg11.dtd">
<!-- Generated by graphviz version 2.40.1 (20161225.0304)
 -->
<!-- Title: G Pages: 1 -->
<svg width="1126pt" height="786pt"
 viewBox="0.00 0.00 1125.74 785.94" xmlns="http://www.w3.org/2000/svg" xmlns:xlink="http://www.w3.org/1999/xlink">
<g id="graph0" class="graph" transform="scale(1 1) rotate(0) translate(4 781.9414)">
<title>G</title>
<polygon fill="#ffffff" stroke="transparent" points="-4,4 -4,-781.9414 1121.7434,-781.9414 1121.7434,4 -4,4"/>
<!-- src/helper.cpp -->
<g id="node1" class="node">
<title>src/helper.cpp</title>
<ellipse fill="none" stroke="#000000" cx="1057.2988" cy="-18" rx="60.3893" ry="18"/>
<text text-anchor="middle" x="1057.2988" y="-14.3" font-family="Times,serif" font-size="14.00" fill="#000000">src/helper.cpp</text>
</g>
<!-- build/CMakeFiles/sct.dir/src/helper.cpp.o -->
<g id="node2" class="node">
<title>build/CMakeFiles/sct.dir/src/helper.cpp.o</title>
<ellipse fill="none" stroke="#000000" cx="929.7156" cy="-184.4029" rx="157.872" ry="18"/>
<text text-anchor="middle" x="929.7156" y="-180.7029" font-family="Times,serif" font-size="14.00" fill="#000000">build/CMakeFiles/sct.dir/src/helper.cpp.o</text>
</g>
<!-- src/helper.cpp&#45;&gt;build/CMakeFiles/sct.dir/src/helper.cpp.o -->
<g id="edge1" class="edge">
<title>src/helper.cpp&#45;&gt;build/CMakeFiles/sct.dir/src/helper.cpp.o</title>
<path fill="none" stroke="#000000" d="M1043.6452,-35.808C1021.126,-65.1791 976.0878,-123.9211 949.8878,-158.0929"/>
<polygon fill="#000000" stroke="#000000" points="946.9648,-156.153 943.6578,-166.2185 952.52,-160.4122 946.9648,-156.153"/>
<text text-anchor="middle" x="983.7665" y="-100.7505" font-family="Times,serif" font-size="14.00" fill="#000000">SRC</text>
</g>
<!-- build/sct -->
<g id="node5" class="node">
<title>build/sct</title>
<ellipse fill="none" stroke="#000000" cx="779.9636" cy="-389.4667" rx="40.8928" ry="18"/>
<text text-anchor="middle" x="779.9636" y="-385.7667" font-family="Times,serif" font-size="14.00" fill="#000000">build/sct</text>
</g>
<!-- build/CMakeFiles/sct.dir/src/helper.cpp.o&#45;&gt;build/sct -->
<g id="edge6" class="edge">
<title>build/CMakeFiles/sct.dir/src/helper.cpp.o&#45;&gt;build/sct</title>
<path fill="none" stroke="#000000" d="M916.4261,-202.601C889.6947,-239.2057 829.3621,-321.8226 798.6642,-363.8589"/>
<polygon fill="#000000" stroke="#000000" points="795.6572,-362.0418 792.5862,-372.1818 801.3103,-366.1701 795.6572,-362.0418"/>
<text text-anchor="middle" x="845.0452" y="-287.0299" font-family="Times,serif" font-size="14.00" fill="#000000">OBJ</text>
</g>
<!-- src/main.cpp -->
<g id="node3" class="node">
<title>src/main.cpp</title>
<ellipse fill="none" stroke="#000000" cx="1058.994" cy="-759.9414" rx="56.59" ry="18"/>
<text text-anchor="middle" x="1058.994" y="-756.2414" font-family="Times,serif" font-size="14.00" fill="#000000">src/main.cpp</text>
</g>
<!-- build/CMakeFiles/sct.dir/src/main.cpp.o -->
<g id="node4" class="node">
<title>build/CMakeFiles/sct.dir/src/main.cpp.o</title>
<ellipse fill="none" stroke="#000000" cx="930.9737" cy="-593.9743" rx="154.0727" ry="18"/>
<text text-anchor="middle" x="930.9737" y="-590.2743" font-family="Times,serif" font-size="14.00" fill="#000000">build/CMakeFiles/sct.dir/src/main.cpp.o</text>
</g>
<!-- src/main.cpp&#45;&gt;build/CMakeFiles/sct.dir/src/main.cpp.o -->
<g id="edge2" class="edge">
<title>src/main.cpp&#45;&gt;build/CMakeFiles/sct.dir/src/main.cpp.o</title>
<path fill="none" stroke="#000000" d="M1045.2935,-742.18C1022.6972,-712.8858 977.5047,-654.2977 951.215,-620.2154"/>
<polygon fill="#000000" stroke="#000000" points="953.8427,-617.8915 944.9637,-612.1111 948.3001,-622.1669 953.8427,-617.8915"/>
<text text-anchor="middle" x="985.2543" y="-684.9977" font-family="Times,serif" font-size="14.00" fill="#000000">SRC</text>
</g>
<!-- build/CMakeFiles/sct.dir/src/main.cpp.o&#45;&gt;build/sct -->
<g id="edge3" class="edge">
<title>build/CMakeFiles/sct.dir/src/main.cpp.o&#45;&gt;build/sct</title>
<path fill="none" stroke="#000000" d="M917.5725,-575.8256C890.6166,-539.3202 829.7771,-456.9273 798.8213,-415.0051"/>
<polygon fill="#000000" stroke="#000000" points="801.448,-412.6701 792.6923,-406.7047 795.8169,-416.8283 801.448,-412.6701"/>
<text text-anchor="middle" x="845.6969" y="-499.2153" font-family="Times,serif" font-size="14.00" fill="#000000">OBJ</text>
</g>
<!-- build/lib/libfoo.so -->
<g id="node6" class="node">
<title>build/lib/libfoo.so</title>
<ellipse fill="none" stroke="#000000" cx="505.598" cy="-389.7118" rx="74.187" ry="18"/>
<text text-anchor="middle" x="505.598" y="-386.0118" font-family="Times,serif" font-size="14.00" fill="#000000">build/lib/libfoo.so</text>
</g>
<!-- build/lib/libfoo.so&#45;&gt;build/sct -->
<g id="edge4" class="edge">
<title>build/lib/libfoo.so&#45;&gt;build/sct</title>
<path fill="none" stroke="#000000" d="M579.8453,-389.6455C626.9545,-389.6034 686.7055,-389.55 728.6045,-389.5126"/>
<polygon fill="#000000" stroke="#000000" points="728.8567,-393.0124 738.8535,-389.5034 728.8504,-386.0124 728.8567,-393.0124"/>
<text text-anchor="middle" x="634.2249" y="-393.379" font-family="Times,serif" font-size="14.00" fill="#000000">SO/DL</text>
</g>
<!-- lib/foo.cpp -->
<g id="node7" class="node">
<title>lib/foo.cpp</title>
<ellipse fill="none" stroke="#000000" cx="49.3956" cy="-389.8005" rx="49.2915" ry="18"/>
<text text-anchor="middle" x="49.3956" y="-386.1005" font-family="Times,serif" font-size="14.00" fill="#000000">lib/foo.cpp</text>
</g>
<!-- build/lib/CMakeFiles/foo.dir/foo.cpp.o -->
<g id="node8" class="node">
<title>build/lib/CMakeFiles/foo.dir/foo.cpp.o</title>
<ellipse fill="none" stroke="#000000" cx="255.6487" cy="-389.7719" rx="148.6738" ry="18"/>
<text text-anchor="middle" x="255.6487" y="-386.0719" font-family="Times,serif" font-size="14.00" fill="#000000">build/lib/CMakeFiles/foo.dir/foo.cpp.o</text>
</g>
<!-- lib/foo.cpp&#45;&gt;build/lib/CMakeFiles/foo.dir/foo.cpp.o -->
<g id="edge5" class="edge">
<title>lib/foo.cpp&#45;&gt;build/lib/CMakeFiles/foo.dir/foo.cpp.o</title>
<path fill="none" stroke="#000000" d="M98.7984,-389.7936C98.9548,-389.7936 99.1114,-389.7936 99.2683,-389.7935"/>
<polygon fill="#000000" stroke="#000000" points="96.4737,-393.2941 106.4731,-389.7925 96.4726,-386.2941 96.4737,-393.2941"/>
<text text-anchor="middle" x="99.0333" y="-378.5936" font-family="Times,serif" font-size="14.00" fill="#000000">SRC</text>
</g>
<!-- build/lib/CMakeFiles/foo.dir/foo.cpp.o&#45;&gt;build/lib/libfoo.so -->
<g id="edge7" class="edge">
<title>build/lib/CMakeFiles/foo.dir/foo.cpp.o&#45;&gt;build/lib/libfoo.so</title>
<path fill="none" stroke="#000000" d="M404.6545,-389.7361C410.2608,-389.7347 415.8001,-389.7334 421.2249,-389.7321"/>
<polygon fill="#000000" stroke="#000000" points="421.5043,-393.2321 431.5034,-389.7296 421.5025,-386.2321 421.5043,-393.2321"/>
<text text-anchor="middle" x="419.1897" y="-378.5341" font-family="Times,serif" font-size="14.00" fill="#000000">OBJ</text>
</g>
</g>
</svg>
