<?xml version="1.0" encoding="UTF-8" standalone="no"?>
<!DOCTYPE svg PUBLIC "-//W3C//DTD SVG 1.1//EN"
 "http://www.w3.org/Graphics/SVG/1.1/DTD/svg11.dtd">
<!-- Generated by graphviz version 2.40.1 (20161225.0304)
 -->
<!-- Title: G Pages: 1 -->
<svg width="1550pt" height="385pt"
 viewBox="0.00 0.00 1549.67 385.45" xmlns="http://www.w3.org/2000/svg" xmlns:xlink="http://www.w3.org/1999/xlink">
<g id="graph0" class="graph" transform="scale(1 1) rotate(0) translate(4 381.4473)">
<title>G</title>
<polygon fill="#ffffff" stroke="transparent" points="-4,4 -4,-381.4473 1545.6743,-381.4473 1545.6743,4 -4,4"/>
<!-- int [] arrSquare -->
<g id="node1" class="node">
<title>int [] arrSquare</title>
<ellipse fill="none" stroke="#000000" cx="240.1556" cy="-359.4473" rx="64.9885" ry="18"/>
<text text-anchor="middle" x="240.1556" y="-355.7473" font-family="Times,serif" font-size="14.00" fill="#000000">int [] arrSquare</text>
</g>
<!-- src/main.cpp -->
<g id="node2" class="node">
<title>src/main.cpp</title>
<ellipse fill="none" stroke="#000000" cx="235.6085" cy="-224.7615" rx="56.59" ry="18"/>
<text text-anchor="middle" x="235.6085" y="-221.0615" font-family="Times,serif" font-size="14.00" fill="#000000">src/main.cpp</text>
</g>
<!-- int [] arrSquare&#45;&gt;src/main.cpp -->
<g id="edge1" class="edge">
<title>int [] arrSquare&#45;&gt;src/main.cpp</title>
<path fill="none" stroke="#000000" d="M239.5424,-341.2829C238.7796,-318.69 237.4687,-279.8594 236.5714,-253.2815"/>
<polygon fill="#000000" stroke="#000000" points="240.0621,-252.9444 236.2266,-243.0682 233.0661,-253.1806 240.0621,-252.9444"/>
<text text-anchor="middle" x="207.5569" y="-301.0822" font-family="Times,serif" font-size="14.00" fill="#000000">REFERED</text>
</g>
<!-- src/helper.cpp -->
<g id="node4" class="node">
<title>src/helper.cpp</title>
<ellipse fill="none" stroke="#000000" cx="245.3808" cy="-144.5137" rx="60.3893" ry="18"/>
<text text-anchor="middle" x="245.3808" y="-140.8137" font-family="Times,serif" font-size="14.00" fill="#000000">src/helper.cpp</text>
</g>
<!-- int [] arrSquare&#45;&gt;src/helper.cpp -->
<g id="edge15" class="edge">
<title>int [] arrSquare&#45;&gt;src/helper.cpp</title>
<path fill="none" stroke="#000000" d="M240.6011,-341.1221C241.5131,-303.6083 243.5984,-217.8298 244.6883,-172.9971"/>
<polygon fill="#000000" stroke="#000000" points="248.1922,-172.8746 244.9364,-162.7925 241.1943,-172.7044 248.1922,-172.8746"/>
<text text-anchor="middle" x="213.6447" y="-260.8596" font-family="Times,serif" font-size="14.00" fill="#000000">DEFINED</text>
</g>
<!-- build/CMakeFiles/sct.dir/src/main.cpp.o -->
<g id="node7" class="node">
<title>build/CMakeFiles/sct.dir/src/main.cpp.o</title>
<ellipse fill="none" stroke="#000000" cx="516.2758" cy="-252.6425" rx="154.0727" ry="18"/>
<text text-anchor="middle" x="516.2758" y="-248.9425" font-family="Times,serif" font-size="14.00" fill="#000000">build/CMakeFiles/sct.dir/src/main.cpp.o</text>
</g>
<!-- src/main.cpp&#45;&gt;build/CMakeFiles/sct.dir/src/main.cpp.o -->
<g id="edge6" class="edge">
<title>src/main.cpp&#45;&gt;build/CMakeFiles/sct.dir/src/main.cpp.o</title>
<path fill="none" stroke="#000000" d="M289.724,-230.1372C317.9231,-232.9385 353.7055,-236.493 388.4563,-239.9451"/>
<polygon fill="#000000" stroke="#000000" points="388.4118,-243.4578 398.7088,-240.9636 389.1038,-236.4921 388.4118,-243.4578"/>
<text text-anchor="middle" x="326.0901" y="-238.8412" font-family="Times,serif" font-size="14.00" fill="#000000">SRC</text>
</g>
<!-- int maxele -->
<g id="node3" class="node">
<title>int maxele</title>
<ellipse fill="none" stroke="#000000" cx="167.8629" cy="-18" rx="48.1917" ry="18"/>
<text text-anchor="middle" x="167.8629" y="-14.3" font-family="Times,serif" font-size="14.00" fill="#000000">int maxele</text>
</g>
<!-- int maxele&#45;&gt;src/main.cpp -->
<g id="edge2" class="edge">
<title>int maxele&#45;&gt;src/main.cpp</title>
<path fill="none" stroke="#000000" d="M173.7564,-35.987C185.6177,-72.1882 212.44,-154.0506 226.547,-197.1056"/>
<polygon fill="#000000" stroke="#000000" points="223.2407,-198.2557 229.6804,-206.6688 229.8927,-196.0761 223.2407,-198.2557"/>
<text text-anchor="middle" x="169.6517" y="-105.3463" font-family="Times,serif" font-size="14.00" fill="#000000">REFERED</text>
</g>
<!-- int maxele&#45;&gt;src/helper.cpp -->
<g id="edge4" class="edge">
<title>int maxele&#45;&gt;src/helper.cpp</title>
<path fill="none" stroke="#000000" d="M178.6415,-35.5912C191.7575,-56.9974 214.0271,-93.3427 229.2036,-118.1116"/>
<polygon fill="#000000" stroke="#000000" points="226.235,-119.966 234.4439,-126.6641 232.2037,-116.3088 226.235,-119.966"/>
<text text-anchor="middle" x="174.9225" y="-80.6514" font-family="Times,serif" font-size="14.00" fill="#000000">DEFINED</text>
</g>
<!-- build/CMakeFiles/sct.dir/src/helper.cpp.o -->
<g id="node5" class="node">
<title>build/CMakeFiles/sct.dir/src/helper.cpp.o</title>
<ellipse fill="none" stroke="#000000" cx="518.5095" cy="-93.5881" rx="157.872" ry="18"/>
<text text-anchor="middle" x="518.5095" y="-89.8881" font-family="Times,serif" font-size="14.00" fill="#000000">build/CMakeFiles/sct.dir/src/helper.cpp.o</text>
</g>
<!-- src/helper.cpp&#45;&gt;build/CMakeFiles/sct.dir/src/helper.cpp.o -->
<g id="edge3" class="edge">
<title>src/helper.cpp&#45;&gt;build/CMakeFiles/sct.dir/src/helper.cpp.o</title>
<path fill="none" stroke="#000000" d="M296.7542,-134.935C333.0964,-128.1589 382.8402,-118.884 426.0061,-110.8356"/>
<polygon fill="#000000" stroke="#000000" points="426.7751,-114.2526 435.9641,-108.9789 425.492,-107.3712 426.7751,-114.2526"/>
<text text-anchor="middle" x="348.3802" y="-126.6853" font-family="Times,serif" font-size="14.00" fill="#000000">SRC</text>
</g>
<!-- build/sct -->
<g id="node8" class="node">
<title>build/sct</title>
<ellipse fill="none" stroke="#000000" cx="749.7038" cy="-172.8873" rx="40.8928" ry="18"/>
<text text-anchor="middle" x="749.7038" y="-169.1873" font-family="Times,serif" font-size="14.00" fill="#000000">build/sct</text>
</g>
<!-- build/CMakeFiles/sct.dir/src/helper.cpp.o&#45;&gt;build/sct -->
<g id="edge14" class="edge">
<title>build/CMakeFiles/sct.dir/src/helper.cpp.o&#45;&gt;build/sct</title>
<path fill="none" stroke="#000000" d="M568.3906,-110.6972C609.9975,-124.9683 668.6126,-145.0732 707.8188,-158.5209"/>
<polygon fill="#000000" stroke="#000000" points="706.7515,-161.8549 717.3462,-161.7887 709.0227,-155.2335 706.7515,-161.8549"/>
<text text-anchor="middle" x="625.6047" y="-138.409" font-family="Times,serif" font-size="14.00" fill="#000000">OBJ</text>
</g>
<!-- int count -->
<g id="node6" class="node">
<title>int count</title>
<ellipse fill="none" stroke="#000000" cx="77.8997" cy="-277.8606" rx="42.4939" ry="18"/>
<text text-anchor="middle" x="77.8997" y="-274.1606" font-family="Times,serif" font-size="14.00" fill="#000000">int count</text>
</g>
<!-- int count&#45;&gt;src/main.cpp -->
<g id="edge10" class="edge">
<title>int count&#45;&gt;src/main.cpp</title>
<path fill="none" stroke="#000000" d="M111.3457,-266.5997C133.3766,-259.1821 162.581,-249.3492 187.1418,-241.0798"/>
<polygon fill="#000000" stroke="#000000" points="188.2892,-244.3866 196.6496,-237.8786 186.0555,-237.7525 188.2892,-244.3866"/>
<text text-anchor="middle" x="120.2438" y="-242.6397" font-family="Times,serif" font-size="14.00" fill="#000000">DEFINED</text>
</g>
<!-- int count&#45;&gt;src/helper.cpp -->
<g id="edge5" class="edge">
<title>int count&#45;&gt;src/helper.cpp</title>
<path fill="none" stroke="#000000" d="M98.1018,-261.7759C127.4567,-238.4038 182.0819,-194.9118 215.9231,-167.9677"/>
<polygon fill="#000000" stroke="#000000" points="218.4078,-170.4633 224.0509,-161.4963 214.0476,-164.987 218.4078,-170.4633"/>
<text text-anchor="middle" x="126.5125" y="-218.6718" font-family="Times,serif" font-size="14.00" fill="#000000">REFERED</text>
</g>
<!-- build/CMakeFiles/sct.dir/src/main.cpp.o&#45;&gt;build/sct -->
<g id="edge7" class="edge">
<title>build/CMakeFiles/sct.dir/src/main.cpp.o&#45;&gt;build/sct</title>
<path fill="none" stroke="#000000" d="M566.352,-235.533C608.4644,-221.1445 667.9833,-200.8087 707.6587,-187.2528"/>
<polygon fill="#000000" stroke="#000000" points="708.9643,-190.5055 717.2955,-183.9603 706.701,-183.8815 708.9643,-190.5055"/>
<text text-anchor="middle" x="624.5054" y="-215.1929" font-family="Times,serif" font-size="14.00" fill="#000000">OBJ</text>
</g>
<!-- build/lib/libfoo.so -->
<g id="node9" class="node">
<title>build/lib/libfoo.so</title>
<ellipse fill="none" stroke="#000000" cx="1039.4977" cy="-177.3391" rx="74.187" ry="18"/>
<text text-anchor="middle" x="1039.4977" y="-173.6391" font-family="Times,serif" font-size="14.00" fill="#000000">build/lib/libfoo.so</text>
</g>
<!-- build/lib/libfoo.so&#45;&gt;build/sct -->
<g id="edge8" class="edge">
<title>build/lib/libfoo.so&#45;&gt;build/sct</title>
<path fill="none" stroke="#000000" d="M965.2449,-176.1984C913.7479,-175.4073 846.489,-174.3741 800.8995,-173.6738"/>
<polygon fill="#000000" stroke="#000000" points="800.7107,-170.1706 790.6581,-173.5165 800.6031,-177.1698 800.7107,-170.1706"/>
<text text-anchor="middle" x="863.0722" y="-178.7361" font-family="Times,serif" font-size="14.00" fill="#000000">SO/DL</text>
</g>
<!-- int [] arrCircle -->
<g id="node10" class="node">
<title>int [] arrCircle</title>
<ellipse fill="none" stroke="#000000" cx="61.7445" cy="-128.7818" rx="61.99" ry="18"/>
<text text-anchor="middle" x="61.7445" y="-125.0818" font-family="Times,serif" font-size="14.00" fill="#000000">int [] arrCircle</text>
</g>
<!-- int [] arrCircle&#45;&gt;src/main.cpp -->
<g id="edge9" class="edge">
<title>int [] arrCircle&#45;&gt;src/main.cpp</title>
<path fill="none" stroke="#000000" d="M90.8454,-144.8467C120.3202,-161.1179 166.0279,-186.3503 198.1818,-204.1005"/>
<polygon fill="#000000" stroke="#000000" points="196.8328,-207.3537 207.279,-209.1225 200.2159,-201.2254 196.8328,-207.3537"/>
<text text-anchor="middle" x="114.0136" y="-178.2736" font-family="Times,serif" font-size="14.00" fill="#000000">REFERED</text>
</g>
<!-- int [] arrCircle&#45;&gt;src/helper.cpp -->
<g id="edge12" class="edge">
<title>int [] arrCircle&#45;&gt;src/helper.cpp</title>
<path fill="none" stroke="#000000" d="M121.1123,-133.8678C138.9723,-135.3978 158.7122,-137.0889 177.1012,-138.6643"/>
<polygon fill="#000000" stroke="#000000" points="176.8956,-142.1594 187.1579,-139.5258 177.4932,-135.185 176.8956,-142.1594"/>
<text text-anchor="middle" x="149.1068" y="-125.0661" font-family="Times,serif" font-size="14.00" fill="#000000">DEFINED</text>
</g>
<!-- lib/foo.cpp -->
<g id="node11" class="node">
<title>lib/foo.cpp</title>
<ellipse fill="none" stroke="#000000" cx="1492.2787" cy="-197.9607" rx="49.2915" ry="18"/>
<text text-anchor="middle" x="1492.2787" y="-194.2607" font-family="Times,serif" font-size="14.00" fill="#000000">lib/foo.cpp</text>
</g>
<!-- build/lib/CMakeFiles/foo.dir/foo.cpp.o -->
<g id="node12" class="node">
<title>build/lib/CMakeFiles/foo.dir/foo.cpp.o</title>
<ellipse fill="none" stroke="#000000" cx="1286.0256" cy="-185.3939" rx="148.6738" ry="18"/>
<text text-anchor="middle" x="1286.0256" y="-181.6939" font-family="Times,serif" font-size="14.00" fill="#000000">build/lib/CMakeFiles/foo.dir/foo.cpp.o</text>
</g>
<!-- lib/foo.cpp&#45;&gt;build/lib/CMakeFiles/foo.dir/foo.cpp.o -->
<g id="edge11" class="edge">
<title>lib/foo.cpp&#45;&gt;build/lib/CMakeFiles/foo.dir/foo.cpp.o</title>
<path fill="none" stroke="#000000" d="M1443.3996,-194.9825C1438.8728,-194.7067 1434.1511,-194.419 1429.2884,-194.1228"/>
<polygon fill="#000000" stroke="#000000" points="1429.3205,-190.6183 1419.1261,-193.5036 1428.8947,-197.6054 1429.3205,-190.6183"/>
<text text-anchor="middle" x="1423.344" y="-198.3527" font-family="Times,serif" font-size="14.00" fill="#000000">SRC</text>
</g>
<!-- build/lib/CMakeFiles/foo.dir/foo.cpp.o&#45;&gt;build/lib/libfoo.so -->
<g id="edge13" class="edge">
<title>build/lib/CMakeFiles/foo.dir/foo.cpp.o&#45;&gt;build/lib/libfoo.so</title>
<path fill="none" stroke="#000000" d="M1142.2626,-180.6967C1135.8329,-180.4866 1129.4798,-180.279 1123.2759,-180.0763"/>
<polygon fill="#000000" stroke="#000000" points="1123.0979,-176.5688 1112.9889,-179.7402 1122.8692,-183.565 1123.0979,-176.5688"/>
<text text-anchor="middle" x="1126.5193" y="-169.1865" font-family="Times,serif" font-size="14.00" fill="#000000">OBJ</text>
</g>
</g>
</svg>
